<svg xmlns="http://www.w3.org/2000/svg" xmlns:xlink="http://www.w3.org/1999/xlink" width="319.143" height="324.887" viewBox="0 0 319.143 324.887">
  <defs>
    <clipPath id="clip-path">
      <rect id="Rectángulo_17575" data-name="Rectángulo 17575" width="319.143" height="320.636" transform="translate(-73.637 479.032)" fill="none"/>
    </clipPath>
  </defs>
  <g id="Grupo_11904" data-name="Grupo 11904" transform="translate(-1256.718 -26)">
    <g id="Grupo_10453" data-name="Grupo 10453" transform="translate(1330.355 -448.78)" opacity="0.3">
      <g id="Grupo_10452" data-name="Grupo 10452">
        <g id="Grupo_11854" data-name="Grupo 11854">
          <g id="Grupo_11853" data-name="Grupo 11853" clip-path="url(#clip-path)">
            <g id="Grupo_10451" data-name="Grupo 10451">
              <path id="Trazado_29599" data-name="Trazado 29599" d="M208.513,754.566a115.388,115.388,0,0,1-17.653,14.863C133.272,810.749,65.131,798.7,50.649,795.763c-21.385-4.343-62.723-12.739-92.609-47.885-45.215-53.172-38.174-136.943-3.1-192.242,6.415-10.115,40.3-66.256,109.178-75.259,41.683-5.448,90.271,5.54,125.458,35.02,73.86,61.88,68.6,186.888,18.94,239.17" fill="#fff"/>
            </g>
          </g>
        </g>
      </g>
    </g>
    <g id="Grupo_11900" data-name="Grupo 11900" transform="translate(1163.548 -114.754)">
      <g id="Grupo_11888" data-name="Grupo 11888" transform="translate(111.452 200.374)">
        <g id="Grupo_11883" data-name="Grupo 11883" transform="translate(1.225 61.528)">
          <path id="Trazado_36115" data-name="Trazado 36115" d="M123.352,219l-11.109-.034c0,.235.025,95.741.071,95.954.888,4.047,9.9,4.1,10.938.141C123.318,314.821,123.352,219.28,123.352,219Z" transform="translate(-112.243 -218.97)" fill="#333647" fill-rule="evenodd"/>
          <path id="Trazado_36116" data-name="Trazado 36116" d="M117.037,218.986l-4.794-.016c0,.235.025,95.741.071,95.954.406,1.852,2.514,2.867,4.78,3.044C117.058,303.169,117.038,225.661,117.037,218.986Z" transform="translate(-112.243 -218.97)" fill="#1f202b" fill-rule="evenodd"/>
          <path id="Trazado_36117" data-name="Trazado 36117" d="M119.341,219.475l-2.333-.434c0,.071,0,98.138.011,98.2a4.263,4.263,0,0,0,2.506-1.487C119.544,315.682,119.341,219.558,119.341,219.475Z" transform="translate(-109.628 -218.931)" fill="#5e627d" fill-rule="evenodd"/>
          <path id="Trazado_36118" data-name="Trazado 36118" d="M113.052,219.014l1.523.305c0,9.775,0,97.122-.011,97.182a2.278,2.278,0,0,1-1.7-1.207Z" transform="translate(-111.9 -218.946)" fill="#333647" fill-rule="evenodd"/>
        </g>
        <g id="Grupo_11887" data-name="Grupo 11887">
          <g id="Grupo_11884" data-name="Grupo 11884" transform="translate(269.037 116.866)">
            <path id="Trazado_36119" data-name="Trazado 36119" d="M296.256,254.732l-11.107-.034c0,.235.023,95.741.07,95.954.889,4.047,9.9,4.1,10.94.141C296.222,350.549,296.256,255.008,296.256,254.732Z" transform="translate(-285.149 -254.698)" fill="#333647" fill-rule="evenodd"/>
            <path id="Trazado_36120" data-name="Trazado 36120" d="M289.943,254.713l-4.794-.015c0,.235.023,95.741.07,95.954.407,1.852,2.514,2.867,4.78,3.044C289.963,338.9,289.944,261.389,289.943,254.713Z" transform="translate(-285.149 -254.698)" fill="#1f202b" fill-rule="evenodd"/>
            <path id="Trazado_36121" data-name="Trazado 36121" d="M292.246,255.2l-2.333-.434c0,.073,0,98.138.011,98.2a4.266,4.266,0,0,0,2.508-1.487C292.449,351.41,292.246,255.286,292.246,255.2Z" transform="translate(-282.534 -254.659)" fill="#5e627d" fill-rule="evenodd"/>
            <path id="Trazado_36122" data-name="Trazado 36122" d="M285.957,254.742l1.524.305c0,9.773,0,97.122-.012,97.182a2.283,2.283,0,0,1-1.7-1.207Z" transform="translate(-284.806 -254.674)" fill="#333647" fill-rule="evenodd"/>
          </g>
          <g id="Grupo_11885" data-name="Grupo 11885" transform="translate(184.025 165.87)">
            <path id="Trazado_36123" data-name="Trazado 36123" d="M241.37,286.369l-11.107-.033c0,.234.023,95.74.07,95.952.888,4.047,9.9,4.1,10.94.141C241.336,382.186,241.37,286.644,241.37,286.369Z" transform="translate(-230.263 -286.336)" fill="#333647" fill-rule="evenodd"/>
            <path id="Trazado_36124" data-name="Trazado 36124" d="M235.057,286.35l-4.794-.014c0,.234.023,95.74.07,95.952.407,1.852,2.514,2.867,4.78,3.044C235.077,370.534,235.058,293.026,235.057,286.35Z" transform="translate(-230.263 -286.336)" fill="#1f202b" fill-rule="evenodd"/>
            <path id="Trazado_36125" data-name="Trazado 36125" d="M237.36,286.84l-2.333-.434c0,.073,0,98.138.011,98.2a4.261,4.261,0,0,0,2.508-1.489C237.563,383.047,237.36,286.923,237.36,286.84Z" transform="translate(-227.648 -286.298)" fill="#5e627d" fill-rule="evenodd"/>
            <path id="Trazado_36126" data-name="Trazado 36126" d="M231.073,286.379l1.521.305c0,9.775,0,97.122-.011,97.182a2.279,2.279,0,0,1-1.7-1.207Z" transform="translate(-229.92 -286.312)" fill="#333647" fill-rule="evenodd"/>
          </g>
          <g id="Grupo_11886" data-name="Grupo 11886">
            <path id="Trazado_36127" data-name="Trazado 36127" d="M206.218,179.456l-13.734,7.909c-37.031,21.5-26.94,14.962-63.969,36.465l-6.889,4a78.168,78.168,0,0,0-8.2,5.317,6.879,6.879,0,0,0-1.953,5.2v1.792a7.465,7.465,0,0,0,3.276,6.541C161.072,273.4,252.78,326.5,299.145,353.254c46.183-26.819,45.269-25.561,91.425-52.43a4.934,4.934,0,0,0,.692-.475c.068-.059.136-.139.218-.2a7.371,7.371,0,0,0,2.159-3.8c0-.02.014-.029.014-.05a17.655,17.655,0,0,0,.218-3.8,8.077,8.077,0,0,0-4.136-7.04l-12.7-7.334c-40.644-23.478-126.1-74.172-166.746-97.642C208.987,179.74,207.1,178.828,206.218,179.456Z" transform="translate(-111.441 -179.246)" fill="#cacad9" fill-rule="evenodd"/>
            <path id="Trazado_36128" data-name="Trazado 36128" d="M326.248,249.642l-15.532,5.875L232.65,303.336v4.3c-.014.208-.014.424-.014.633l94.7-54.338A8.376,8.376,0,0,0,326.248,249.642Z" transform="translate(-44.936 -140.607)" fill="#e8e8f7" fill-rule="evenodd"/>
            <path id="Trazado_36129" data-name="Trazado 36129" d="M112.756,214.492a8.416,8.416,0,0,0-1.3,4.568l187.7,108.5c.014-.821.014-1.673.014-2.514v-2.8L119.334,216.873Z" transform="translate(-111.452 -159.9)" fill="#d8d8e6" fill-rule="evenodd"/>
            <path id="Trazado_36130" data-name="Trazado 36130" d="M298.7,321.692V318.06L137.288,222.344,116.6,212.81a4.977,4.977,0,0,0-4.309,2.605L298.7,323.167v-1.475Z" transform="translate(-110.99 -160.824)" fill="#e8e8f7" fill-rule="evenodd"/>
            <path id="Trazado_36131" data-name="Trazado 36131" d="M232.645,303.418v.94l93.6-53.694a5.325,5.325,0,0,0-4.459-2.884h-.012L306.217,254.3l-73.572,44.562v4.552Z" transform="translate(-44.931 -141.629)" fill="#f2f2fc" fill-rule="evenodd"/>
            <path id="Trazado_36132" data-name="Trazado 36132" d="M205.33,179.529c-44.484,25.849-45.77,25.7-90.254,51.549,89.2,51.5,92.9,53.757,182.1,105.25,44.47-25.845,44.642-25.238,89.126-51.085C297.1,233.745,294.516,231.025,205.33,179.529Z" transform="translate(-109.463 -179.091)" fill="#f9f9fe" fill-rule="evenodd"/>
          </g>
        </g>
      </g>
      <g id="Grupo_11889" data-name="Grupo 11889" transform="translate(227.034 263.81)">
        <path id="Trazado_36133" data-name="Trazado 36133" d="M256.224,220.2l-70.149,40.766,50,28.867,70.149-40.766Z" transform="translate(-186.075 -220.202)" fill="#e8e8f7" fill-rule="evenodd"/>
        <path id="Trazado_36134" data-name="Trazado 36134" d="M202.919,259.046l55.986-30.578s23.833,13.265-3.485,28.778l-10.568,6.183S222.593,276.7,202.919,259.046Z" transform="translate(-176.829 -215.665)" fill="none" stroke="#733b36" stroke-miterlimit="10" stroke-width="0.5" stroke-dasharray="1" fill-rule="evenodd"/>
      </g>
      <path id="Trazado_36135" data-name="Trazado 36135" d="M152.3,251.318l57.682,33.361,88.594-50.838L240.9,200.481Z" transform="translate(22.42 32.783)" fill="#733b36" fill-rule="evenodd"/>
      <path id="Trazado_36136" data-name="Trazado 36136" d="M185.643,232.554,228.25,207.71l40.359,22.934-67.114,37.885-29.566-21.7Z" transform="translate(33.194 36.751)" fill="none" stroke="#fff" stroke-miterlimit="10" stroke-width="0.5" stroke-dasharray="1" fill-rule="evenodd"/>
      <g id="Grupo_11890" data-name="Grupo 11890" transform="translate(168.225 251.893)">
        <path id="Trazado_36137" data-name="Trazado 36137" d="M158.233,376.984c-3.906-2.367-9.262-5.522-5.464-12.464,2.037-3.722,1.665-9.121,1.07-13.506-1.166-8.606-4.373-21.056-4.289-28.913.1-9.021,3.256-13.246,4.857-28.927,1.273-12.45-1.918-25.366-3.256-37.827-5.069-11.666-.9-30.248,4.953-41.462l10.088-1.377c4.044,9.634,8.477,10.3,9.8,21.875,1.832,16.051,1.834,32.414-2.881,51.2-.522,2.083-1.45,5.567-2.052,8.522-.64,3.121-1.732,2.187-2.114,7.652-.3,4.3-.091,18.147-1.361,26.579-1.1,7.284-2.141,14.985-2.737,20.061-1.307,11.15.948,17.738,1.8,25.056C168.18,386.738,179.313,389.763,158.233,376.984Z" transform="translate(-147.684 -212.508)" fill="#e8a476" fill-rule="evenodd"/>
        <path id="Trazado_36138" data-name="Trazado 36138" d="M154.67,308.924a22.347,22.347,0,0,1,7.888,5.1c3.332,3.423,5.926,13.613,7.275,13.7.849.054,3.93-3.408,6.138-3.38.674.008,1.338-.065,1.676.462,1.157,1.806-6.093,7.5-8.259,8.864-.957,1.233-9.331-.613-10.534-1.36-1.744-1.083-.994-4.015-3.291-6.975-4.019-3.022-6.237-5.915-4.991-10.731C151.025,312.849,152.585,308.331,154.67,308.924Z" transform="translate(-146.943 -159.616)" fill="#333647" fill-rule="evenodd"/>
        <path id="Trazado_36139" data-name="Trazado 36139" d="M153.573,360.068c-1.168-8.6-3.683-30.11-3.6-37.966.1-9.021,2.8-13.246,4.4-28.927,1.159-11.341-1.859-29.424-3.959-41.2-6.042-12.464,1.14-28.741,6.115-38.089l10.088-1.377c4.044,9.634,8.477,10.3,9.8,21.875,1.832,16.051,1.834,32.414-2.881,51.2-.522,2.083-1.45,5.567-2.052,8.522-.64,3.121-1.732,2.187-2.114,7.652-.3,4.3-.093,18.147-1.361,26.579-1.1,7.284-1.56,27.524-1.667,32.634C166.1,366.646,157.247,364.358,153.573,360.068Z" transform="translate(-148.106 -212.508)" fill="#841235" fill-rule="evenodd"/>
        <path id="Trazado_36140" data-name="Trazado 36140" d="M148.242,243.021c-.609-10.4,4.185-21.519,8.24-29.136l10.088-1.377c4.044,9.634,8.477,10.3,9.8,21.875,1.832,16.051,3.516,31.648-1.2,50.435-1.535,6.118-4.349,15.311-5.241,21.509-.87,6.036-1.007,15.611-1.97,22.008-1.1,7.284-1.56,27.524-1.665,32.634-.153,3.536-3.645,3.982-7.145,2.777-.11-17.063-1.025-40.361-.062-50.5.861-9.075,2.35-9.625,3.978-18.57,2.229-12.236,4.684-21.734,4.789-34.582C165.789,260.358,148.984,255.66,148.242,243.021Z" transform="translate(-148.061 -212.508)" fill="#730220" fill-rule="evenodd"/>
        <path id="Trazado_36141" data-name="Trazado 36141" d="M167.057,330.066c-1.546.908-9.2-.8-10.351-1.515-1.332-.829-1.21-3.629-2.1-6.225.025-2.382-.706-4.541-.376-5.437.643-1.741,2.709-1.261,4.684-.441C161.395,317.481,164.7,328.325,167.057,330.066Z" transform="translate(-144.794 -155.862)" fill-rule="evenodd"/>
        <path id="Trazado_36142" data-name="Trazado 36142" d="M186.863,326.553c-.418-1.447-5.361-.409-7.024-.166-.883.129-3.352.153-4.035-.544-1.258-1.284-2.732,2.509-4.03,2.565,1.784.356,5.807-.46,7.267-.307a7.472,7.472,0,0,0,3.347-.152Z" transform="translate(-135.115 -150.445)" fill="#edced3" fill-rule="evenodd"/>
        <path id="Trazado_36143" data-name="Trazado 36143" d="M183.494,385.179c.971,1.278,3.606.057,5.449.547,4.083,1.083-4.919,7.349-7.867,7.771-6.313.906-2.571-8.158-10.853-13.311-3.8-2.368-9.024-5.523-4.929-12.464,2.2-3.722,2.17-6.292,1.763-10.676-.8-8.606-3.575-21.209-3.154-29.066.482-9.021,3.468-13.245,5.743-28.927,1.8-12.45-.175-26.436-.977-38.9-14.3-13.2-9.3-28.106-.153-37.943l16.37-3.826c3.632,9.636,7.119,10.68,7.944,22.258,1.145,16.051,1.363,32.033-4.154,50.817-.612,2.083-1.69,5.567-2.419,8.522-.773,3.123-1.825,2.187-2.441,7.652-.485,4.3-.87,18.147-2.5,26.58C178.787,347.3,175.234,374.319,183.494,385.179Z" transform="translate(-141.737 -209.282)" fill="#f1b287" fill-rule="evenodd"/>
        <path id="Trazado_36144" data-name="Trazado 36144" d="M181.069,333.613c.971,1.278,3.606.057,5.449.547,4.083,1.083-4.919,7.349-7.867,7.771a3.2,3.2,0,0,1-3.882-2.12c-.183-6.019.07-17.854-1.357-23.3-3.7,1.245-8.494-.559-9.284-2.786l.277-1.4,11.525.034C176.077,320.872,177.422,328.819,181.069,333.613Z" transform="translate(-139.312 -157.716)" fill="#e8a476" fill-rule="evenodd"/>
        <path id="Trazado_36145" data-name="Trazado 36145" d="M164.734,314.481c-4.063,3.761-4.887,8.432-2.306,13.144,1.622,6.2,3.087,10.991,3.6,18.1l1.473.469,1.165-.709-.708-14.042c2.783,3.025,2.621,7.193,4.306,8.691a39.4,39.4,0,0,0,6.858,3.428,17.209,17.209,0,0,0,4.991-2.038c2.314-1.391,9.976-7.212,8.551-9.058-.417-.537-1.152-.463-1.905-.472-1.825-.02-4.111.779-4.831.644a1.343,1.343,0,0,1,.917.7c.62,1.1-4.589,3.528-5.306,2.98C174.64,330.978,173.484,313.767,164.734,314.481Z" transform="translate(-141.055 -156.548)" fill="#333647" fill-rule="evenodd"/>
        <path id="Trazado_36146" data-name="Trazado 36146" d="M166.331,366.787c-.8-8.606-1.93-30.951-1.509-38.809.482-9.021,2.093-14.316,4.366-30,1.8-12.45-1.092-26.131-2.508-38.592-14.3-13.2-8.531-28.87.612-38.708l18.512-2.3c5.909,15.67,8.067,16.034,9.485,32.122A131.522,131.522,0,0,1,189.9,291c-.612,2.082-1.688,5.567-2.419,8.522-.771,3.123-1.519,3.717-2.134,9.182-.485,4.3-1.831,16.994-2.96,25.509a202.114,202.114,0,0,0-1.4,30.206C179.9,371.008,168.724,371.9,166.331,366.787Z" transform="translate(-142.655 -209.282)" fill="#841235" fill-rule="evenodd"/>
        <path id="Trazado_36147" data-name="Trazado 36147" d="M164.1,256.739c-10.938-12.6-5.345-26.872,3.192-36.058l18.512-2.3c6.358,16.864,9.428,12.656,9.507,34.263A130.834,130.834,0,0,1,189.9,291c-.612,2.082-1.688,5.567-2.419,8.522-.771,3.123-1.519,3.717-2.134,9.182-.485,4.3-1.831,16.994-2.96,25.509a202.114,202.114,0,0,0-1.4,30.206c-.589,3.575-4.171,5.231-7.532,5.567.319-16.375-.373-34.859.731-46.5.863-9.075,2.2-12.836,3.979-25.454,1.739-12.314,3.764-21.2,3.871-34.046C176.638,263.284,167.746,260.939,164.1,256.739Z" transform="translate(-142.655 -209.282)" fill="#730220" fill-rule="evenodd"/>
        <path id="Trazado_36148" data-name="Trazado 36148" d="M165.477,325.537c2.783,3.025,2.621,7.193,4.306,8.691a39.4,39.4,0,0,0,6.858,3.428C173.762,329.842,170.577,323.755,165.477,325.537Z" transform="translate(-138.572 -150.639)" fill-rule="evenodd"/>
        <path id="Trazado_36149" data-name="Trazado 36149" d="M160.517,316.82c-3.107,5.588-2.875,13.087-3.728,19.456l-1.112.751-1.276-.5c.186-5.945-2.5-14.367-3.607-19.332C149.385,310.914,158.708,311.153,160.517,316.82Z" transform="translate(-146.711 -157.609)" fill="#333647" fill-rule="evenodd"/>
      </g>
      <g id="Grupo_11891" data-name="Grupo 11891" transform="translate(224.666 239.719)">
        <path id="Trazado_36150" data-name="Trazado 36150" d="M186.787,209.825c3.807,2.006,8.9-.864,12.662-1.747,2.189-.514,3.105-.951,4.241-.572a22.274,22.274,0,0,1,3.846,2.545,15.126,15.126,0,0,1,2.89,4.193,9.224,9.224,0,0,1,.435,6.442c-1.289,4.009-7.205-3.539-7.944-3.852-2.906.827-4.791,3.281-7.591,2.512-4.636-1.273-6.716-2.509-10.212-3.482Z" transform="translate(-184.234 -203.158)" fill="#f1b287" fill-rule="evenodd"/>
        <path id="Trazado_36151" data-name="Trazado 36151" d="M197.464,210.9c4.055-.184,4.684-.555,9.107.017,2.018.973,2.882,1.989,4.6,2.559a19.543,19.543,0,0,1,.658,4.7,9.673,9.673,0,0,1-1.924,3.067c-2.068-.074-3.138-1.983-3.555-2.817a10.32,10.32,0,0,1-3.426-2.788c-2.906.827-4.306,3.067-7.167,2.568-4.9-.857-5.124-1.422-6.654-2.162a33.968,33.968,0,0,0-4.554-1.921l2.769-3.164Z" transform="translate(-184.546 -201.378)" fill="#e8a476" fill-rule="evenodd"/>
        <path id="Trazado_36152" data-name="Trazado 36152" d="M191.7,206.964c7.328,7.667,17,18.354,22.728,21.268-2.579-4.159-13.485-14.612-21-22.721C191.575,203.618,189.987,205.176,191.7,206.964Z" transform="translate(-181.022 -204.648)" fill="#001e30" fill-rule="evenodd"/>
        <path id="Trazado_36153" data-name="Trazado 36153" d="M213.55,227.473c-2.6-3.852-12.359-13.268-19.561-20.967-.561-.6-1.914-2.249-2.508-1.439C195.048,209.5,210.255,224.566,213.55,227.473Z" transform="translate(-180.739 -204.539)" fill="#004875" fill-rule="evenodd"/>
        <path id="Trazado_36154" data-name="Trazado 36154" d="M188.779,213.588c3.391,3.432,6.186,2.062,8.771.44,2.137.486,3.318-.132,4.6-.011,3.164,2.407,4.8,2.7,5.838,1.049-.92-.948-3.442-3.688-4.306-4.419a30.33,30.33,0,0,0-6.115-1.035c-3.426-.386-6.093.22-11.152,1.047l-.488,3.171Z" transform="translate(-183.79 -201.989)" fill="#f1b287" fill-rule="evenodd"/>
        <path id="Trazado_36155" data-name="Trazado 36155" d="M204.18,214.03l.31,5.085c-2.532.085-3.092-2.689-2.975-4.842a11.5,11.5,0,0,1-3.589-2.811l2.325-2.5c.691.638,1.6,1.453,2.263,2.185C203.341,212.06,204.1,212.777,204.18,214.03Z" transform="translate(-177.202 -202.279)" fill="#f1b287" fill-rule="evenodd"/>
      </g>
      <g id="Grupo_11892" data-name="Grupo 11892" transform="translate(184.02 184.196)">
        <path id="Trazado_36156" data-name="Trazado 36156" d="M202.054,216.533c-1.767.373-2.241,6.928-2.124,7.34-14.2-4.809-23.757-9.571-34.565-17.05-1.972-1.365-4.32-1.735-4.681-4.493-.26-1.99.967-4.32,2.035-6.518l9.32.186C179.617,197.592,192.455,209.806,202.054,216.533Z" transform="translate(-157.016 -153.976)" fill="#dbd4d4" fill-rule="evenodd"/>
        <path id="Trazado_36157" data-name="Trazado 36157" d="M190.928,211.457c-.316.1-1.36.551-1.848,4.424-3.79-1.738-5.262-2.22-8.163-3.844a16.04,16.04,0,0,1,1.612-6.976C185.455,207.382,188.312,209.623,190.928,211.457Z" transform="translate(-145.891 -148.9)" fill="#e8e3e3" fill-rule="evenodd"/>
        <path id="Trazado_36158" data-name="Trazado 36158" d="M166.239,220.264c-1.942-.784-3.745-.624-4.2-2.831-.836-4.083-.51-14.158-3.133-26.261-1.58-7.278-.784-24.624,11.412-22.126,7.088,1.451,4.016,10.054,2.921,18.613-.556,4.351.5,17.583.13,23.416C172.4,213.613,170.136,221.838,166.239,220.264Z" transform="translate(-158.304 -168.801)" fill="#c7c1c1" fill-rule="evenodd"/>
      </g>
      <g id="Grupo_11893" data-name="Grupo 11893" transform="translate(167.736 184.242)">
        <path id="Trazado_36159" data-name="Trazado 36159" d="M158.527,233.043c-9.1,8.465-11.236,22.46-10.613,32.414,7.41,9.873,24.77,19.654,40.923,17.069a30.412,30.412,0,0,0,12.592-5.035c-.832-14.868-7.385-34.334-5.675-42.038.733-3.305,3.24-13.133,5.782-15.588,17.422-3.5,9.972-15.1,11.569-23.938-5.145-10.407-22.609-23.154-31.586-26.029-16.915-5.42-17.969,11.087-16.474,21.218,1.313,8.912,5.952,17.413,3.181,28.362C166.4,226.7,162.694,227.957,158.527,233.043Z" transform="translate(-147.777 -168.831)" fill="#e8e3e3" fill-rule="evenodd"/>
        <path id="Trazado_36160" data-name="Trazado 36160" d="M153.846,238.771c-4.966,8.339-6.569,18.743-5.918,26.686a42.825,42.825,0,0,0,11.713,10.28c-.242-27.267,15.734-37.4,17.171-52.125,1.238-12.69-12.117-45.55,2.681-49.509,3.9,6.967,10.907,11.488,21.9,10.4,3.409,2.393,8.16,7.374,9.451,8.747-1.31-6.587-17.536-19.008-22.454-20.831-3.533-1.31-6.6-2.443-6.854-2.523-16.915-5.42-17.969,11.087-16.474,21.218,1.84,12.481,5.186,19.847,2.6,28.16C165.251,227.018,159.066,230,153.846,238.771Z" transform="translate(-147.79 -168.831)" fill="#dbd4d4" fill-rule="evenodd"/>
        <path id="Trazado_36161" data-name="Trazado 36161" d="M199.907,188.033c-9.567,5.085-6.831,16.9-4.4,24.561-3.285,5.864-6.124,15.6-7.023,20.439-1.414,7.621,3.829,24.257,5.609,40.242-9.464,7.125-26.5,5.385-35.267-.129,1.688-23.6,9.169-34,14.456-46.493,7.349-17.374-10.4-44.08-.567-52.15,3.175,8.527,14.354,9.532,21.6,8.4C195.6,183.488,198.451,186.256,199.907,188.033Z" transform="translate(-141.733 -165.718)" fill="#f6f5f5" fill-rule="evenodd"/>
      </g>
      <g id="Grupo_11895" data-name="Grupo 11895" transform="translate(222.111 207.976)">
        <g id="Grupo_11894" data-name="Grupo 11894" transform="translate(24.353 64.761)">
          <path id="Trazado_36162" data-name="Trazado 36162" d="M215.618,234.056c3.373-.791,10.869-2.944,11.178-4.619a5.677,5.677,0,0,0-2.633-2.292c-3.535-.524-10.653-1.12-12.01-1.166-3.4-.115-5.683.491-6.858,3.294a8.059,8.059,0,0,1-1.507,2.429c-.822.99-1.962-.527-2.755-2.065l-2.413,2.965c1.252,6.375,4.286,9.826,9.99,7.1a8.832,8.832,0,0,0,3.124-2.855C213.877,233.525,213.378,234.581,215.618,234.056Z" transform="translate(-198.619 -225.966)" fill="#e8a476" fill-rule="evenodd"/>
          <path id="Trazado_36163" data-name="Trazado 36163" d="M222,231.412c2.488-.965,4.636-2.322,4.8-3.2-3.513,1.484-8.268,2.587-10.59,2.509-3.394-.115-4.688.949-6.705,3.446-.853,1.056-3.16,2.971-4.644,2.429-1.208-.44-3.033-6.646-3.826-8.184l-2.413,2.965c1.252,6.375,4.286,9.826,9.99,7.1a8.832,8.832,0,0,0,3.124-2.855c1.176-1.82,1.574-2.227,2.062-2.309C217.034,232.755,218.759,232.668,222,231.412Z" transform="translate(-198.619 -224.735)" fill="#db9669" fill-rule="evenodd"/>
        </g>
        <path id="Trazado_36164" data-name="Trazado 36164" d="M190.49,184.227c7.661.945,7.966,19.652,11.006,36.122l13.856,32.711c1.087,3.9-5.52,8.5-9,6.033L189.39,223.438c-1.8-6.677-3.782-12.575-5.271-19.35C182.848,198.289,180.366,182.98,190.49,184.227Z" transform="translate(-182.896 -184.155)" fill="#e8e3e3" fill-rule="evenodd"/>
        <path id="Trazado_36165" data-name="Trazado 36165" d="M194,222.7c5.065,11.592,11.2,23.622,17.018,36.5a4.865,4.865,0,0,1-4.668-.2L189.39,223.338c-1.8-6.677-3.782-12.575-5.271-19.35-1.121-5.111-3.183-17.614,3.279-19.651C188.788,198.007,192.256,213.253,194,222.7Z" transform="translate(-182.896 -184.054)" fill="#dbd4d4" fill-rule="evenodd"/>
        <path id="Trazado_36166" data-name="Trazado 36166" d="M187.8,184.2c7.661.945,7.966,19.652,11.006,36.122l13.856,32.711c.466,1.67-.48,3.47-1.989,4.786-6.6-14.309-13.605-31.089-15.712-35.019C194.929,222.685,188.484,193.3,187.8,184.2Z" transform="translate(-180.205 -184.129)" fill="#f6f5f5" fill-rule="evenodd"/>
      </g>
      <g id="Grupo_11899" data-name="Grupo 11899" transform="translate(196.124 140.754)">
        <g id="Grupo_11896" data-name="Grupo 11896" transform="translate(5.614 22.203)">
          <path id="Trazado_36167" data-name="Trazado 36167" d="M169.765,177.5c-.593,1.651,10.481,12.82,16.071,10.884,2.632-6.505,5-12.233,9.73-17.891l-13.6-9.4-3.446-2.762C177.644,167.23,175.213,171.023,169.765,177.5Z" transform="translate(-169.742 -153.312)" fill="#e8a476" fill-rule="evenodd"/>
          <path id="Trazado_36168" data-name="Trazado 36168" d="M191.432,175.734c-1.983,3.744-4.56,8.223-7.4,13.547.431-6.267.957-11.363-10.351-18.649.345-1.571,2.768-6.192,3.206-7.009C188.2,142.529,186.9,165.982,191.432,175.734Z" transform="translate(-167.581 -155.089)" fill="#db9669" fill-rule="evenodd"/>
        </g>
        <g id="Grupo_11897" data-name="Grupo 11897" transform="translate(9.401 0.451)">
          <path id="Trazado_36169" data-name="Trazado 36169" d="M196.472,181.8c-.81.462-5.658-2.438-7.227-4.382-1.939-2.887-8.855-5.53-13-8.771-1.276-3.408-2.292-4.374-3.217-8.446a21.526,21.526,0,0,1-.666-8.194C177.255,147.667,188.743,163.94,196.472,181.8Z" transform="translate(-172.187 -135.419)" fill="#db9669" fill-rule="evenodd"/>
          <path id="Trazado_36170" data-name="Trazado 36170" d="M196.365,187.449c-1.558.139-6.893-7.543-7.574-7.862-4.86-2.283-10.529-4.848-13.254-7.064a28.986,28.986,0,0,1-2.961-8.855,17.707,17.707,0,0,1-.217-6.033c1.205-7.4,5.378-14.248,13.723-16.124,14.515-3.26,26.816,11.319,23.9,22.2-1.2,4.464-3.138,4.721-4.365,7.484a20.749,20.749,0,0,0-.424,4.053c0,.809-2.216,3.14-4.246,6.473C199.207,184.59,197.4,187.356,196.365,187.449Z" transform="translate(-172.187 -141.046)" fill="#e8a476" fill-rule="evenodd"/>
          <path id="Trazado_36171" data-name="Trazado 36171" d="M188.529,181.67c-.4.036-1.042-.44-1.792-1.171a9.114,9.114,0,0,1,.2-5.161c2.17-4.149,5.948-6.539,6.762-8.251,1.719-3.617-.347-2.4,2.912-5.632,1.643-1.631,1.47-2.7,1.73-4.012.469-2.365,3.891-5.867,3.892-5.87a9.991,9.991,0,0,1,.345,2.746,13.015,13.015,0,0,1-.426,3.614c-1.2,4.464-3.138,4.721-4.365,7.484a20.749,20.749,0,0,0-.424,4.053c0,.809-2.216,3.14-4.246,6.473C191.371,178.811,189.562,181.578,188.529,181.67Z" transform="translate(-164.351 -135.267)" fill="#f1b287" fill-rule="evenodd"/>
        </g>
        <path id="Trazado_36172" data-name="Trazado 36172" d="M173.242,167.913c-.621,3.672,9.65,9.3,15.915,9.3l.328-.66c.731.723,2.251,4.74,2.035,6.515-6.5,3.466-21.6-3.391-22.143-9.693C169.149,170.713,170.056,168.842,173.242,167.913Z" transform="translate(-164.347 -125.847)" fill="#fcfcfc" fill-rule="evenodd"/>
        <path id="Trazado_36173" data-name="Trazado 36173" d="M169.406,184.417c4.73-8.285-1.877-26,9.614-37.979a18.911,18.911,0,0,1,9.67-5.294c9.1-1.959,18.616,3.689,22.415,12.01,1.479,2.237,2.556,6.95,1.365,10.235-1.848,5.1-7.923,8.92-16.853,11.336a1.3,1.3,0,0,0-.166-.113C188.8,179.529,179.218,192.321,169.406,184.417Z" transform="translate(-164.313 -140.754)" fill="#361d07" fill-rule="evenodd"/>
        <path id="Trazado_36174" data-name="Trazado 36174" d="M175.562,146.523l.079-.085a18.917,18.917,0,0,1,9.67-5.294c9.1-1.959,18.616,3.689,22.415,12.01,2.066,3.124,4.422,11.1-2.3,15.286a13.673,13.673,0,0,0,2.952-9.224,10.731,10.731,0,0,1-5.416,5.771c2.11-2.071,4.439-6.733,4.486-9.134a10.775,10.775,0,0,1-4.21,6.095c1.681-3.045,2.449-5.393,2.283-8.409-.61,2.432-.734,2.92-3.92,5.979,1.193-2.542,2.128-5.384,1.928-7.433a24.619,24.619,0,0,1-3.542,4.568,52.812,52.812,0,0,0,1.739-5.977,48.865,48.865,0,0,0-4.269,4.521,22.245,22.245,0,0,1,2.994-6.1,14.391,14.391,0,0,0-5.189,4.241c1.2-2.827,1.572-3.527,2.912-5.06a9.009,9.009,0,0,0-5.049,3.277c1.056-2.5,1.7-3.586,2.731-4.49a10.714,10.714,0,0,0-5.167,2.938,9.382,9.382,0,0,1,2.774-4.19c-2.67.7-3.562,1.281-6.4,3.4a15.986,15.986,0,0,1,3.137-4.6,26.573,26.573,0,0,0-5.7,2.681,29.387,29.387,0,0,1,3.569-4.086,18.578,18.578,0,0,0-6.18,3.48,9.378,9.378,0,0,1,3.344-3.818,35.867,35.867,0,0,0-6.158,3.583,12.63,12.63,0,0,1,4.342-4.088,30.036,30.036,0,0,0-7.842,4.154Z" transform="translate(-160.934 -140.754)" fill="#4a2b12" fill-rule="evenodd"/>
        <path id="Trazado_36175" data-name="Trazado 36175" d="M166.118,181.873c8.878-1,6.652-13.149,7.346-18.391.785-5.929,1.272-12.382,6.454-18.412-2.918,4.747-4.281,8.643-3.277,14.828a19.822,19.822,0,0,1,4.142-7.7c-1.465,4.558-1.165,6.542-.649,9.293,1.12-4.63,2.342-6.021,4.293-8.984-.943,3.8-1.856,6.6-1.3,10.057,1.3-2.472,1.927-4.764,5.21-8.26-.939,3.079-2.745,7.379-1.783,10.478a57.567,57.567,0,0,1,5.395-8.452c-1.32,3.234-3.05,6.092-3.229,9.563a40.351,40.351,0,0,0,7.769-7.411,26.405,26.405,0,0,1-6.264,9.919c3.614-1.307,7.9-2.6,10.986-4.554a22.611,22.611,0,0,1-8.353,6.7c7.848-2.128,10.615-.389,17.733-4.7-2.215,2.568-5.782,4.207-13.173,6.507a1.3,1.3,0,0,0-.166-.113,35.685,35.685,0,0,0-5.5,4.4c-3.15,11.987-9.185,16.011-18.068,9.03C171.217,183.729,168.548,182.078,166.118,181.873Z" transform="translate(-166.118 -138.386)" fill="#241304" fill-rule="evenodd"/>
        <path id="Trazado_36176" data-name="Trazado 36176" d="M187.67,162.312c-5.986,9.606,4.329,24.584,6.809,34.884-8.522-10.965-16.33-14.248-15.224-28.229Z" transform="translate(-158.965 -128.922)" fill="#241304" fill-rule="evenodd"/>
        <g id="Grupo_11898" data-name="Grupo 11898" transform="translate(25.311 32.196)">
          <path id="Trazado_36177" data-name="Trazado 36177" d="M187.785,163.933c1.383-1.349,1.173-2.187.366-2.357-.884-.189-2.556.4-3.961,1.818-2.264,2.278-2.582,6.388.711,6.315C186.082,169.143,186.312,166.374,187.785,163.933Z" transform="translate(-182.459 -161.541)" fill="#e8a476" fill-rule="evenodd"/>
          <path id="Trazado_36178" data-name="Trazado 36178" d="M187.785,163.933c1.383-1.349,1.173-2.187.366-2.357-.884-.189-2.556.4-3.961,1.818-2.264,2.278-2.582,6.388.711,6.315-2.336-.966-.8-3.6.7-4.964C186.616,163.821,187.725,163.355,187.785,163.933Z" transform="translate(-182.459 -161.541)" fill="#f1b287" fill-rule="evenodd"/>
          <path id="Trazado_36179" data-name="Trazado 36179" d="M185.6,163.237c.064,1.49-.056,2.3-.457,2.608-.279.214-.874.324-1.253-.717A4.538,4.538,0,0,1,185.6,163.237Z" transform="translate(-181.675 -160.61)" fill="#db9669" fill-rule="evenodd"/>
        </g>
      </g>
      <path id="Trazado_36180" data-name="Trazado 36180" d="M208.451,213.806l25.294,14.839-4.946,3.373L204.516,216.5Z" transform="translate(51.082 40.097)" fill="none" stroke="#fff" stroke-miterlimit="10" stroke-width="0.5" stroke-dasharray="1" fill-rule="evenodd"/>
    </g>
  </g>
</svg>
